# xmcd
#
# Track frame offsets: 
#        150
#        7076
#        19284
#        36630
#        52629
#        68168
#        80611
#        92173
#        111642
#        124017
#        133434
#        142045
#        160332
#        168780
#        195322
#        204231
#        236386
#
# Disc length: 3312 seconds
#
# Revision: 0
# Processed by: cddbd v1.5.2PL0 Copyright (c) Steve Scherf et al.
# Submitted via: ExactAudioCopy v1.1
#
DISCID=ee0cee11
DTITLE=Nsango Malamu - Embenga Yemba 
DYEAR=2009
DGENRE=Soul
TTITLE0=Kulumuka
TTITLE1=Kota na boato na Masiya
TTITLE2=Bandimi na Yesu
TTITLE3=Zebola
TTITLE4=Zulu dizibuka
TTITLE5=Soki Yo ozangi
TTITLE6=Nzambe tata tobiangi yo
TTITLE7=Mawa mingi
TTITLE8=Kuba N' Guy
TTITLE9=Mposa na libondeli
TTITLE10=Sanzola Nkolo na nkembo
TTITLE11=Tonduv
TTITLE12=Mboka na likolo
TTITLE13=Muamba muamba
TTITLE14=Telema
TTITLE15=Nkembo na nkembo
TTITLE16=Kimia awa nse tobondeli
EXTD=
EXTT0=
EXTT1=
EXTT2=
EXTT3=
EXTT4=
EXTT5=
EXTT6=
EXTT7=
EXTT8=
EXTT9=
EXTT10=
EXTT11=
EXTT12=
EXTT13=
EXTT14=
EXTT15=
EXTT16=
PLAYORDER=
